<svg
  width="48"
  height="48"
  viewBox="0 0 24 24"
  fill="currentColor"
  xmlns="http://www.w3.org/2000/svg"
>
  <path d="M6 4C5.5 4 5 5 5 6.5C5 8 5.5 9 6 9C6.5 9 7 8 7 6.5C7 5 6.5 4 6 4Z" />
  
  <path d="M18 4C17.5 4 17 5 17 6.5C17 8 17.5 9 18 9C18.5 9 19 8 19 6.5C19 5 18.5 4 18 4Z" />
  
  <ellipse cx="12" cy="11" rx="7" ry="6" />
  
  <ellipse cx="12" cy="14" rx="4" ry="3.5" fill="white" fill-opacity="0.3" />
  
  <ellipse cx="12" cy="14" rx="1.5" ry="1.2" fill="white" fill-opacity="0.9" />
  
  <circle cx="9.5" cy="10" r="1" fill="white" fill-opacity="0.9" />
  
  <circle cx="14.5" cy="10" r="1" fill="white" fill-opacity="0.9" />
  
  <path d="M8 15C7 15 6 16 6 18C6 20 7 21 8 21H16C17 21 18 20 18 18C18 16 17 15 16 15H8Z" />
  
  <rect x="8" y="20" width="2" height="3" rx="1" />
  
  <rect x="14" y="20" width="2" height="3" rx="1" />
</svg>